<svg t="1699846644191"
     class="icon"
     viewBox="0 0 1024 1024"
     version="1.1"
     xmlns="http://www.w3.org/2000/svg" p-id="3156"
     width="32" height="32"
>
    <path d="M390.747 585.453l0.745 0.75c24.123 24.685 24.306 64.101 0.412 89.008l-0.732 0.75L220.743 848H296c34.993 0 63.426 28.084 63.991 62.942L360 912H144c-17.496 0-31.713-14.042-31.996-31.47L112 880V664l1.058 0.009c34.51 0.56 62.38 28.432 62.934 62.943L176 728v74.227l214.747-216.774z m287.548 45.467L848 802.229V728c0-34.993 28.084-63.426 62.942-63.991L912 664v216c0 17.673-14.327 32-32 32H664c0-34.993 28.083-63.426 62.941-63.991L728 848h75.256l-215.47-217.506c25.111-24.875 65.633-24.685 90.509 0.426zM880 112c17.496 0 31.713 14.042 31.996 31.47l0.004 0.53v216l-1.058-0.009c-34.51-0.56-62.38-28.432-62.934-62.943L848 296v-74.23L633.253 438.547l-0.745-0.75c-24.123-24.685-24.306-64.101-0.412-89.008l0.732-0.75L803.255 176H728c-34.993 0-63.426-28.084-63.991-62.942L664 112h216z m-520 0c0 35.346-28.654 64-64 64h-75.256l215.47 217.506c-25.111 24.875-65.633 24.685-90.509-0.426L176 221.771V296c0 34.993-28.084 63.426-62.942 63.991L112 360V144c0-17.673 14.327-32 32-32h216z"
          fill="#000000" fill-opacity=".65" p-id="3157"></path>
</svg>